<svg id="Layer_1" data-name="Layer 1" xmlns="http://www.w3.org/2000/svg" viewBox="0 0 872.76 156.79"><defs><style>.cls-1{fill:#ff6f88;}.cls-2{fill:#fff;}.cls-3{fill:#d85074;}.cls-4{fill:#ce4663;}.cls-5{fill:#ed5d83;}.cls-6{fill:#f46c8a;}.cls-7{fill:#f96282;}.cls-8{fill:#f46e91;}.cls-9{fill:#ef6583;}</style></defs><title>logo_webgem</title><path class="cls-1" d="M569,267.72V300h24.34v5.6a16.35,16.35,0,0,1-.79,5.14c-2,6.22-7.64,10.17-14.22,11.8-13,3.26-29.58-2.34-29.58-16.94V253.29c0-20,34-24.76,42.43-4.31l32.31-14.85c-9.66-22.29-29.45-31-47.93-32.34h-.19q-2.46-.17-4.87-.17c-30.16,0-60.31,17.23-60.31,51.68v52.34c0,31,23.49,48.38,49.74,52a.06.06,0,0,0,.07,0,75.26,75.26,0,0,0,10.5.73c20,0,39.47-7.57,50.52-22.62q.6-.8,1.16-1.64c5.16-7.68,8.2-17.19,8.2-28.52V267.72Z" transform="translate(-43.62 -201.61)"/><path class="cls-2" d="M200.86,203.76,182.34,277.2,178,309.08h-.65l-5-31.88-15.72-53.62H127.41l-17,53.4-3.66,32.09h-1.08l-3.88-32.31-18.09-73H43.62L87.78,356.25h35.76l12.06-42.43,5.82-34.68h.65L147.44,314,161,356.25h35.76l43.94-152.48Z" transform="translate(-43.62 -201.61)"/><path class="cls-2" d="M359,239.95V203.76H252.77V356.25H359v-36.4h-67.2V297h61.82V263.63H291.76V239.95Z" transform="translate(-43.62 -201.61)"/><path class="cls-2" d="M474.41,275c11-5.6,15.51-17.88,15.72-24.77.86-29.06-20.46-46.51-49.54-46.51H379.42V356.25h62.25c33.82,0,50.4-14.86,54.28-39.42C497.89,305.2,495.31,285.6,474.41,275Zm-56.22-38.76h22.4c19.39,0,18.74,27.13,0,27.13h-22.4Zm22.4,86.14h-22.4V291.2h22.4C463.43,291.2,463.86,322.43,440.6,322.43Z" transform="translate(-43.62 -201.61)"/><path class="cls-3" d="M754.42,239.95V203.76H648.23V356.25H754.42v-36.4h-67.2V297H749V263.63H687.22V239.95Z" transform="translate(-43.62 -201.61)"/><path class="cls-1" d="M877.84,203.76l-20.41,47-11.9,27.47L833.7,250.8l-20.26-47H774.89V356.25h38.56V312.31l-2.58-30.8,1.08-.22,10.51,26.9,10,25.45h26.49l10.84-28.35,9.19-24,1.29.22-.37,4.8-2,26v2l-.22,41.92h38.77V203.76Z" transform="translate(-43.62 -201.61)"/><polygon class="cls-1" points="525.35 66.11 544.26 66.11 538.61 98.42 525.35 98.42 525.35 66.11"/><path class="cls-4" d="M578.3,322.57v0L560,357.67l0,.07,0-.09-31.84-89.58,47.27-66.3.13-.17.06.19L591.16,249c-8.4-20.45-42.43-15.71-42.43,4.31v52.34C548.72,320.23,565.35,325.83,578.3,322.57Z" transform="translate(-43.62 -201.61)"/><path class="cls-5" d="M622.16,334.15c-10.83,16.14-31,24.25-51.68,24.25a75.26,75.26,0,0,1-10.5-.73l18.32-35.09c6.58-1.64,12.22-5.59,14.22-11.8Z" transform="translate(-43.62 -201.61)"/><polygon class="cls-4" points="525.41 66.18 577.37 134.18 525.41 98.48 525.41 66.18"/><path class="cls-1" d="M575.35,201.78l-47.27,66.3L510.28,277l-.11-1.19v-22.5c0-34.45,30.16-51.68,60.31-51.68Q572.89,201.61,575.35,201.78Z" transform="translate(-43.62 -201.61)"/><path class="cls-6" d="M560,357.67a.06.06,0,0,1-.07,0c-26.25-3.65-49.74-21-49.74-52V279.39l.11-2.41,17.79-8.9Z" transform="translate(-43.62 -201.61)"/><polygon class="cls-7" points="586.73 66.11 551.92 100.92 525.41 66.18 586.73 66.11"/><path class="cls-3" d="M630.36,267.72v37.91c0,11.33-3,20.84-8.2,28.52q-.56.84-1.16,1.64l-25.45-33.26Z" transform="translate(-43.62 -201.61)"/><polygon class="cls-5" points="643.6 38.34 710.8 2.15 604.61 2.15 643.6 38.34"/><polygon class="cls-1" points="643.6 38.34 619.02 49.88 604.61 2.15 643.6 38.34"/><polygon class="cls-8" points="604.61 2.15 619.02 49.88 604.61 154.64 604.61 2.15"/><polygon class="cls-3" points="643.6 38.34 619.02 49.88 604.61 154.64 643.6 62.02 643.6 38.34"/><polygon class="cls-6" points="705.41 62.02 643.6 95.41 643.6 118.24 604.61 154.64 643.6 62.02 705.41 62.02"/><polygon class="cls-4" points="710.8 154.64 643.6 118.24 604.61 154.64 710.8 154.64"/><polygon class="cls-1" points="710.8 118.24 677.2 136.44 710.8 154.64 710.8 118.24"/><polygon class="cls-5" points="643.6 118.24 677.2 136.44 710.8 118.24 643.6 118.24"/><polygon class="cls-5" points="643.6 95.41 705.41 62.02 705.41 95.41 643.6 95.41"/><polygon class="cls-8" points="731.26 2.15 751.75 49.2 790.13 49.2 769.82 2.15 731.26 2.15"/><polygon class="cls-6" points="731.26 154.64 751.75 49.2 731.26 2.15 731.26 154.64"/><polygon class="cls-3" points="768.31 79.68 767.23 79.9 769.82 110.7 769.82 154.64 731.26 154.64 751.75 49.2 790.14 49.2 801.91 76.67 778.82 106.58 768.31 79.68"/><polygon class="cls-5" points="731.26 154.64 769.82 154.64 768.26 118.24 731.26 154.64"/><polygon class="cls-1" points="872.76 2.15 851.94 49.2 836.22 84.69 836.59 79.9 835.3 79.68 826.11 103.68 815.27 132.02 801.91 76.67 813.82 49.2 834.22 2.15 872.76 2.15"/><polygon class="cls-5" points="834.22 2.15 853.62 38.34 872.76 2.15 834.22 2.15"/><polygon class="cls-3" points="872.76 49.2 872.76 154.64 833.99 154.64 853.62 134.39 834.21 112.72 834.22 110.7 836.22 84.69 836.59 79.9 835.3 79.68 826.11 103.68 801.91 76.67 813.82 49.2 872.76 49.2"/><polygon class="cls-3" points="784.35 120.21 788.77 132.02 815.27 132.02 784.35 120.21"/><polygon class="cls-5" points="784.35 120.21 801.91 76.67 778.82 106.58 784.35 120.21"/><polygon class="cls-5" points="815.27 132.02 801.91 76.67 784.35 120.21 815.27 132.02"/><polygon class="cls-8" points="853.62 38.34 815.27 49.2 834.22 2.15 853.62 38.34"/><polygon class="cls-4" points="872.76 2.15 872.76 49.2 815.27 49.2 853.62 38.34 872.76 2.15"/><polygon class="cls-5" points="853.62 38.34 872.76 49.2 813.82 49.2 853.62 38.34"/><path class="cls-3" d="M877.83,314.33" transform="translate(-43.62 -201.61)"/><polygon class="cls-5" points="731.26 2.15 769.82 2.15 751.75 49.2 731.26 2.15"/><polygon class="cls-5" points="853.62 134.39 872.76 154.64 833.99 154.64 853.62 134.39"/><path class="cls-5" d="M916.39,250.8" transform="translate(-43.62 -201.61)"/><polygon class="cls-9" points="872.76 49.2 853.62 134.39 872.76 154.64 872.76 49.2"/><polygon class="cls-9" points="851.94 49.2 853.62 134.39 872.76 49.2 851.94 49.2"/><polygon class="cls-1" points="830.22 49.08 852.52 78.4 851.94 49.2 830.22 49.08"/><path class="cls-3" d="M822.45,308.19" transform="translate(-43.62 -201.61)"/><polygon class="cls-5" points="751.75 49.2 767.23 79.9 790.14 49.2 751.75 49.2"/></svg>