<svg xmlns="http://www.w3.org/2000/svg" viewBox="0 0 207.9 33.78"><defs><style>.a{fill:#fff;}</style></defs><title>logo</title><path class="a" d="M74.23,20.42l5.48-9.17h.71l-5.9,9.7v5.94h-.58V20.95L68,11.25h.77Z" transform="translate(0 -2.1)"/><path class="a" d="M89.39,26.89a8.05,8.05,0,0,1-.21-2.13,4.66,4.66,0,0,1-1.88,1.73,5.82,5.82,0,0,1-2.7.61A3.75,3.75,0,0,1,82,26.23a2.91,2.91,0,0,1-1-2.28,3,3,0,0,1,1.44-2.56,7,7,0,0,1,3.84-1h2.87V18.7a2.86,2.86,0,0,0-.92-2.27,3.86,3.86,0,0,0-2.63-.81,4.23,4.23,0,0,0-2.65.82,2.46,2.46,0,0,0-1.06,2l-.58,0A3,3,0,0,1,82.58,16a4.76,4.76,0,0,1,3.05-1,4.46,4.46,0,0,1,3,.94,3.38,3.38,0,0,1,1.14,2.65v5.55a7.45,7.45,0,0,0,.3,2.6v.1Zm-4.79-.37a5.22,5.22,0,0,0,2.81-.73,4.52,4.52,0,0,0,1.77-2.05V21H86.49a6.29,6.29,0,0,0-3.81,1,2.43,2.43,0,0,0-1.07,2,2.31,2.31,0,0,0,.85,1.8A3.15,3.15,0,0,0,84.6,26.52Z" transform="translate(0 -2.1)"/><path class="a" d="M94.08,18a4.86,4.86,0,0,1,1.68-2.14,4.14,4.14,0,0,1,2.45-.78A3.46,3.46,0,0,1,101,16.11a4.85,4.85,0,0,1,.92,3.2v7.58h-.58v-7.6a4.28,4.28,0,0,0-.76-2.76,2.94,2.94,0,0,0-2.38-.9,3.62,3.62,0,0,0-2.6,1.07,5.42,5.42,0,0,0-1.49,2.75v7.44H93.5V15.27h.58Z" transform="translate(0 -2.1)"/><path class="a" d="M106.12,18a4.86,4.86,0,0,1,1.68-2.14,4.14,4.14,0,0,1,2.45-.78A3.46,3.46,0,0,1,113,16.11a4.85,4.85,0,0,1,.92,3.2v7.58h-.58v-7.6a4.28,4.28,0,0,0-.76-2.76,2.94,2.94,0,0,0-2.38-.9,3.62,3.62,0,0,0-2.6,1.07,5.42,5.42,0,0,0-1.49,2.75v7.44h-.58V15.27h.58Z" transform="translate(0 -2.1)"/><path class="a" d="M117.42,11.64a.59.59,0,0,1,.17-.42A.56.56,0,0,1,118,11a.61.61,0,0,1,.6.6.56.56,0,0,1-.18.42.59.59,0,0,1-.42.17.59.59,0,0,1-.59-.59Zm.88,15.25h-.58V15.27h.58Z" transform="translate(0 -2.1)"/><path class="a" d="M126.06,26.52a4,4,0,0,0,2.6-.84,3.11,3.11,0,0,0,1.12-2.32h.58a3.64,3.64,0,0,1-1.3,2.71,4.5,4.5,0,0,1-3,1,4.23,4.23,0,0,1-3.46-1.58,6.6,6.6,0,0,1-1.28-4.29v-.39a6.49,6.49,0,0,1,1.28-4.22A4.21,4.21,0,0,1,126,15.05a4.33,4.33,0,0,1,3.05,1.11,4,4,0,0,1,1.28,2.94h-.58a3.52,3.52,0,0,0-1.1-2.52,3.74,3.74,0,0,0-2.65-1,3.66,3.66,0,0,0-3,1.4,6.16,6.16,0,0,0-1.1,3.89v.38A6,6,0,0,0,123,25.13,3.7,3.7,0,0,0,126.06,26.52Z" transform="translate(0 -2.1)"/><path class="a" d="M135.56,20.61l0,0-1.69,1.45v4.81h-.58V10.39h.58V21.44l1.36-1.29,5.29-4.89h.83l-5.34,5,5.67,6.67h-.75Z" transform="translate(0 -2.1)"/><path class="a" d="M157.84,19.18h-8v7.71h-.58V11.25h9.69v.58h-9.11V18.6h8Z" transform="translate(0 -2.1)"/><path class="a" d="M166.38,15.7l-.75-.06a3.44,3.44,0,0,0-2.48,1,4.79,4.79,0,0,0-1.31,2.69v7.61h-.58V15.27h.58v2.42a4.28,4.28,0,0,1,1.42-1.92,3.85,3.85,0,0,1,2.37-.71,2.31,2.31,0,0,1,.82.12Z" transform="translate(0 -2.1)"/><path class="a" d="M168.46,11.64a.59.59,0,0,1,.17-.42A.56.56,0,0,1,169,11a.61.61,0,0,1,.6.6.56.56,0,0,1-.18.42.59.59,0,0,1-.42.17.59.59,0,0,1-.59-.59Zm.88,15.25h-.58V15.27h.58Z" transform="translate(0 -2.1)"/><path class="a" d="M180.32,24q0-2.12-3.61-2.88a7.09,7.09,0,0,1-3-1.19,2.48,2.48,0,0,1-.85-2,2.55,2.55,0,0,1,1.08-2.11,4.49,4.49,0,0,1,2.81-.83,4.74,4.74,0,0,1,3,.9,2.92,2.92,0,0,1,1.14,2.42h-.59a2.4,2.4,0,0,0-1-2,4,4,0,0,0-2.58-.78,4,4,0,0,0-2.42.67,2.15,2.15,0,0,0-.56,2.9,2.87,2.87,0,0,0,1.08.81,11.09,11.09,0,0,0,2.19.69,9.36,9.36,0,0,1,2.28.78,3.08,3.08,0,0,1,1.21,1.07,2.85,2.85,0,0,1,.38,1.51,2.63,2.63,0,0,1-1.13,2.21,4.83,4.83,0,0,1-3,.84,5.17,5.17,0,0,1-3.15-.89,2.72,2.72,0,0,1-1.2-2.28H173a2.4,2.4,0,0,0,1.08,1.91,4.68,4.68,0,0,0,2.69.68,4.12,4.12,0,0,0,2.53-.73A2.14,2.14,0,0,0,180.32,24Z" transform="translate(0 -2.1)"/><path class="a" d="M191.61,26.89a8.05,8.05,0,0,1-.21-2.13,4.66,4.66,0,0,1-1.88,1.73,5.82,5.82,0,0,1-2.7.61,3.75,3.75,0,0,1-2.59-.88,2.91,2.91,0,0,1-1-2.28,3,3,0,0,1,1.44-2.56,7,7,0,0,1,3.84-1h2.87V18.7a2.86,2.86,0,0,0-.92-2.27,3.86,3.86,0,0,0-2.63-.81,4.23,4.23,0,0,0-2.65.82,2.46,2.46,0,0,0-1.06,2l-.58,0A3,3,0,0,1,184.8,16a4.76,4.76,0,0,1,3.05-1,4.46,4.46,0,0,1,3,.94A3.38,3.38,0,0,1,192,18.64v5.55a7.45,7.45,0,0,0,.3,2.6v.1Zm-4.79-.37a5.22,5.22,0,0,0,2.81-.73,4.52,4.52,0,0,0,1.77-2.05V21h-2.69a6.29,6.29,0,0,0-3.81,1,2.43,2.43,0,0,0-1.07,2,2.31,2.31,0,0,0,.85,1.8A3.15,3.15,0,0,0,186.82,26.52Z" transform="translate(0 -2.1)"/><path class="a" d="M200.83,15.7l-.75-.06a3.44,3.44,0,0,0-2.48,1,4.79,4.79,0,0,0-1.31,2.69v7.61h-.58V15.27h.58v2.42a4.28,4.28,0,0,1,1.42-1.92,3.85,3.85,0,0,1,2.37-.71,2.31,2.31,0,0,1,.82.12Z" transform="translate(0 -2.1)"/><path class="a" d="M204.91,12.13v3.14h2.64v.58h-2.64v8.26a3.29,3.29,0,0,0,.4,1.83,1.51,1.51,0,0,0,1.35.59,8.34,8.34,0,0,0,1.15-.1l.1.55a4,4,0,0,1-1.21.13,2.16,2.16,0,0,1-1.82-.7,3.66,3.66,0,0,1-.56-2.22V15.85h-2.15v-.58h2.15V12.13Z" transform="translate(0 -2.1)"/><path class="a" d="M28.25,35.23l-.07-12L19.13,7l4.16,0,4,7.79c1.11,2.14,2,3.85,2.85,5.82h.08c.79-1.85,1.74-3.71,2.82-5.86l4-7.84,4.16,0L31.87,23.16l.07,12.06Z" transform="translate(0 -2.1)"/><path class="a" d="M14,33q0,1.62-4.4,1.65A17.74,17.74,0,0,0,5,35.88Q3.6,34.8,3.59,34L4,23.8v-.23L4,21q0-.59-2.78-.9A3.35,3.35,0,0,1,0,18l.7-.69H2.32q1.86,0,1.85-.95Q4.11,6.28,3.41,3.8q.44-1.39,1.38-1.4l2.09.46,3.95,0a2.43,2.43,0,0,1,2.57,1.61q0,1.41-2.08,1.42l-3.71,0-.7.69L7,20.75,6.82,31.69h.23l5.35-1A7.08,7.08,0,0,1,14,33Z" transform="translate(0 -2.1)"/><path class="a" d="M47.39,30.51l5.36.9H53l-.3-10.94L52.59,6.3l-.71-.68-3.71,0q-2.09,0-2.1-1.39a2.43,2.43,0,0,1,2.55-1.64l3.95,0,2.09-.48q.94,0,1.41,1.38Q55.38,6,55.44,16q0,.94,1.86.93h1.62l.71.68a3.37,3.37,0,0,1-1.14,2.12q-2.79.35-2.79.94l0,2.56v.23l.53,10.23q0,.76-1.39,1.86a17.74,17.74,0,0,0-4.66-1.14q-4.41,0-4.42-1.59A7.07,7.07,0,0,1,47.39,30.51Z" transform="translate(0 -2.1)"/></svg>